<?xml version="1.0" standalone="no"?>
<!DOCTYPE svg PUBLIC "-//W3C//DTD SVG 20010904//EN"
 "http://www.w3.org/TR/2001/REC-SVG-20010904/DTD/svg10.dtd">
<svg version="1.0" xmlns="http://www.w3.org/2000/svg"
 width="512.000000pt" height="512.000000pt" viewBox="0 0 512.000000 512.000000"
 preserveAspectRatio="xMidYMid meet">
<metadata>
Created by potrace 1.11, written by Peter Selinger 2001-2013
</metadata>
<g transform="translate(0.000000,512.000000) scale(0.100000,-0.100000)"
fill="#000000" stroke="none">
<path d="M2527 5054 c-1 -1 -56 -4 -122 -7 -66 -4 -133 -9 -150 -12 -42 -7
-83 -14 -130 -20 -22 -4 -48 -8 -57 -11 -10 -3 -30 -7 -45 -10 -56 -10 -211
-54 -303 -88 -261 -94 -501 -228 -720 -403 -127 -101 -325 -304 -414 -423 -43
-58 -84 -112 -91 -121 -56 -71 -205 -354 -254 -484 -13 -33 -27 -69 -32 -80
-31 -71 -100 -355 -123 -515 -8 -48 -20 -252 -20 -325 0 -77 12 -283 19 -315
3 -14 7 -43 10 -65 4 -33 20 -117 51 -254 14 -63 81 -257 121 -351 52 -121
104 -219 179 -340 257 -416 657 -763 1112 -964 179 -79 464 -162 621 -181 30
-4 63 -8 74 -11 117 -22 557 -22 637 1 8 3 32 7 52 9 147 19 357 75 523 139
732 282 1296 902 1505 1652 17 61 32 119 34 130 17 89 36 198 41 235 23 189
23 457 0 620 -5 37 -16 111 -21 145 -3 17 -16 76 -29 132 -140 589 -489 1102
-992 1461 -55 40 -103 72 -106 72 -3 0 -26 13 -50 29 -138 94 -436 218 -659
275 -138 36 -157 39 -310 60 -76 11 -344 26 -351 20z"/>
</g>
</svg>
